<svg width="581.04248046875px" height="159.2298828125px" xmlns="http://www.w3.org/2000/svg" viewBox="-40.521240234375 -4.614941406249997 581.04248046875 159.2298828125" style="background: rgb(255, 255, 255);" preserveAspectRatio="xMidYMid"><defs><linearGradient id="editing-gradient-gradient" x1="0.9330127018922193" x2="0.0669872981077807" y1="0.75" y2="0.24999999999999994" gradientUnits="objectBoundingBox"><stop offset="0" stop-color="#943cff"></stop><stop offset="1" stop-color="#ff4c4c"></stop></linearGradient></defs><g><g transform="translate(38.46186828613281, 103.04500007629395)"><path d="M17.40 0.29L17.40 0.29Q13.40 0.29 10.18-1.68L10.18-1.68L10.18-1.68Q6.96-3.65 5.10-7.40L5.10-7.40L5.10-7.40Q3.25-11.14 3.25-16.24L3.25-16.24L3.25-16.24Q3.25-25.06 7.02-32.57L7.02-32.57L7.02-32.57Q10.79-40.08 18.15-44.63L18.15-44.63L18.15-44.63Q25.52-49.18 35.84-49.18L35.84-49.18L35.84-49.18Q38.51-49.18 41.56-48.78L41.56-48.78L41.56-48.78Q44.60-48.37 47.10-47.56L47.10-47.56L47.10-47.56Q48.72-47.10 48.72-45.24L48.72-45.24L48.72-45.24Q48.72-43.73 47.59-42.40L47.59-42.40L47.59-42.40Q46.46-41.06 44.95-41.06L44.95-41.06L44.95-41.06Q44.49-41.06 44.25-41.12L44.25-41.12L44.25-41.12Q41.24-41.82 39.09-42.14L39.09-42.14L39.09-42.14Q36.95-42.46 34.57-42.46L34.57-42.46L34.57-42.46Q27.20-42.46 22.04-38.89L22.04-38.89L22.04-38.89Q16.88-35.32 14.33-29.46L14.33-29.46L14.33-29.46Q11.77-23.61 11.77-16.82L11.77-16.82L11.77-16.82Q11.77-11.89 13.72-9.19L13.72-9.19L13.72-9.19Q15.66-6.50 18.79-6.50L18.79-6.50L18.79-6.50Q22.33-6.50 25.00-9.40L25.00-9.40L25.00-9.40Q27.67-12.30 29.87-18.79L29.87-18.79L29.87-18.79Q32.07-25.29 34.22-36.42L34.22-36.42L34.22-36.42Q34.57-38.05 35.61-38.63L35.61-38.63L35.61-38.63Q36.66-39.21 38.40-39.21L38.40-39.21L38.40-39.21Q42.51-39.21 42.51-36.54L42.51-36.54L42.51-36.54Q42.51-36.08 42.34-35.38L42.34-35.38L42.34-35.38Q40.83-29.75 39.59-22.94L39.59-22.94L39.59-22.94Q38.34-16.12 38.34-12.59L38.34-12.59L38.34-12.59Q38.34-9.45 39.27-8.03L39.27-8.03L39.27-8.03Q40.19-6.61 42.11-6.61L42.11-6.61L42.11-6.61Q43.96-6.61 45.65-7.86L45.65-7.86L45.65-7.86Q47.33-9.11 49.88-12.12L49.88-12.12L49.88-12.12Q50.58-12.93 51.45-12.93L51.45-12.93L51.45-12.93Q52.20-12.93 52.64-12.24L52.64-12.24L52.64-12.24Q53.07-11.54 53.07-10.32L53.07-10.32L53.07-10.32Q53.07-8.06 51.97-6.73L51.97-6.73L51.97-6.73Q49.13-3.31 46.40-1.51L46.40-1.51L46.40-1.51Q43.67 0.29 39.73 0.29L39.73 0.29L39.73 0.29Q35.67 0.29 33.18-2.06L33.18-2.06L33.18-2.06Q30.68-4.41 30.04-8.70L30.04-8.70L30.04-8.70Q25.75 0.29 17.40 0.29L17.40 0.29ZM91.64-17.63L91.64-17.63Q91.81-17.69 92.22-17.69L92.22-17.69L92.22-17.69Q93.09-17.69 93.55-17.11L93.55-17.11L93.55-17.11Q94.02-16.53 94.02-15.54L94.02-15.54L94.02-15.54Q94.02-13.75 93.32-12.73L93.32-12.73L93.32-12.73Q92.63-11.72 91.23-11.25L91.23-11.25L91.23-11.25Q88.57-10.38 85.55-10.38L85.55-10.38L85.55-10.38Q83.00-10.38 80.74-11.08L80.74-11.08L80.74-11.08Q79.05-8.35 77.02-5.45L77.02-5.45L77.02-5.45Q74.70-2.15 73.05-0.93L73.05-0.93L73.05-0.93Q71.40 0.29 69.31 0.29L69.31 0.29L69.31 0.29Q66.99 0.29 65.80-1.51L65.80-1.51L65.80-1.51Q64.61-3.31 64.32-7.42L64.32-7.42L64.03-11.66L64.03-11.66Q62.23-6.79 60.81-4.23L60.81-4.23L60.81-4.23Q59.39-1.68 57.97-0.70L57.97-0.70L57.97-0.70Q56.55 0.29 54.64 0.29L54.64 0.29L54.64 0.29Q52.26 0.29 50.90-1.57L50.90-1.57L50.90-1.57Q49.53-3.42 49.18-7.42L49.18-7.42L49.18-7.42Q48.49-15.54 48.49-21.63L48.49-21.63L48.49-23.66L48.49-23.66Q48.55-25.58 49.53-26.33L49.53-26.33L49.53-26.33Q50.52-27.09 52.49-27.09L52.49-27.09L52.49-27.09Q54.00-27.09 54.72-26.42L54.72-26.42L54.72-26.42Q55.45-25.75 55.45-24.19L55.45-24.19L55.45-24.19Q55.45-17.52 56.26-6.84L56.26-6.84L56.26-6.84Q60.20-15.14 63.51-24.13L63.51-24.13L63.51-24.13Q64.15-25.87 65.05-26.48L65.05-26.48L65.05-26.48Q65.95-27.09 67.22-27.09L67.22-27.09L67.22-27.09Q68.79-27.09 69.40-26.45L69.40-26.45L69.40-26.45Q70.01-25.81 70.01-24.19L70.01-24.19L70.01-24.19Q70.01-17.52 70.82-6.84L70.82-6.84L70.82-6.84Q74.30-12.01 76.04-15.08L76.04-15.08L76.04-15.08Q75.17-16.76 75.17-19.08L75.17-19.08L75.17-19.08Q75.17-21.05 76.04-22.91L76.04-22.91L76.04-22.91Q76.91-24.77 78.42-25.93L78.42-25.93L78.42-25.93Q79.92-27.09 81.84-27.09L81.84-27.09L81.84-27.09Q83.52-27.09 84.56-25.90L84.56-25.90L84.56-25.90Q85.61-24.71 85.61-22.45L85.61-22.45L85.61-22.45Q85.61-19.84 84.22-16.47L84.22-16.47L84.22-16.47Q86.42-16.59 90.07-17.34L90.07-17.34L91.64-17.63ZM114.84-12.93L114.84-12.93Q115.59-12.93 116.03-12.24L116.03-12.24L116.03-12.24Q116.46-11.54 116.46-10.32L116.46-10.32L116.46-10.32Q116.46-8.00 115.36-6.73L115.36-6.73L115.36-6.73Q113.22-4.12 109.30-1.91L109.30-1.91L109.30-1.91Q105.39 0.29 100.92 0.29L100.92 0.29L100.92 0.29Q94.83 0.29 91.47-3.02L91.47-3.02L91.47-3.02Q88.10-6.32 88.10-12.06L88.10-12.06L88.10-12.06Q88.10-16.07 89.78-19.52L89.78-19.52L89.78-19.52Q91.47-22.97 94.45-25.00L94.45-25.00L94.45-25.00Q97.44-27.03 101.21-27.03L101.21-27.03L101.21-27.03Q104.57-27.03 106.60-25.03L106.60-25.03L106.60-25.03Q108.63-23.03 108.63-19.60L108.63-19.60L108.63-19.60Q108.63-15.60 105.76-12.73L105.76-12.73L105.76-12.73Q102.89-9.86 96.05-8.18L96.05-8.18L96.05-8.18Q97.50-5.51 101.56-5.51L101.56-5.51L101.56-5.51Q104.17-5.51 107.50-7.34L107.50-7.34L107.50-7.34Q110.84-9.16 113.27-12.12L113.27-12.12L113.27-12.12Q113.97-12.93 114.84-12.93L114.84-12.93ZM100.22-21.34L100.22-21.34Q98.08-21.34 96.60-18.85L96.60-18.85L96.60-18.85Q95.12-16.36 95.12-12.82L95.12-12.82L95.12-12.70L95.12-12.70Q98.54-13.51 100.51-15.14L100.51-15.14L100.51-15.14Q102.49-16.76 102.49-18.91L102.49-18.91L102.49-18.91Q102.49-20.01 101.88-20.68L101.88-20.68L101.88-20.68Q101.27-21.34 100.22-21.34L100.22-21.34ZM122.55 1.57L122.55 1.57Q119.54 1.57 117.94 0.17L117.94 0.17L117.94 0.17Q116.35-1.22 116.35-2.96L116.35-2.96L116.35-2.96Q116.35-4.47 117.45-5.57L117.45-5.57L117.45-5.57Q118.55-6.67 120.70-6.67L120.70-6.67L120.70-6.67Q121.45-6.67 122.47-6.53L122.47-6.53L122.47-6.53Q123.48-6.38 124.00-6.32L124.00-6.32L124.00-6.32Q123.95-7.83 123.34-9.16L123.34-9.16L123.34-9.16Q122.73-10.50 121.80-11.75L121.80-11.75L121.80-11.75Q120.87-12.99 120.06-13.92L120.06-13.92L120.06-13.92Q118.26-10.50 116.49-8.24L116.49-8.24L116.49-8.24Q114.72-5.97 112.64-3.94L112.64-3.94L112.64-3.94Q111.59-2.90 110.43-2.90L110.43-2.90L110.43-2.90Q109.50-2.90 108.92-3.57L108.92-3.57L108.92-3.57Q108.34-4.23 108.34-5.22L108.34-5.22L108.34-5.22Q108.34-6.38 109.16-7.37L109.16-7.37L109.91-8.29L109.91-8.29Q113.10-12.24 114.72-14.79L114.72-14.79L114.72-14.79Q115.71-16.47 117.04-19.29L117.04-19.29L117.04-19.29Q118.38-22.10 119.65-25.11L119.65-25.11L119.65-25.11Q120.76-27.67 124.24-27.67L124.24-27.67L124.24-27.67Q125.86-27.67 126.50-27.38L126.50-27.38L126.50-27.38Q127.14-27.09 127.14-26.45L127.14-26.45L127.14-26.45Q127.14-26.10 126.90-25.35L126.90-25.35L126.90-25.35Q126.67-24.59 126.27-23.84L126.27-23.84L126.27-23.84Q125.22-21.75 125.22-20.30L125.22-20.30L125.22-20.30Q125.22-19.43 125.83-18.39L125.83-18.39L125.83-18.39Q126.44-17.34 127.72-15.78L127.72-15.78L127.72-15.78Q129.57-13.34 130.53-11.63L130.53-11.63L130.53-11.63Q131.49-9.92 131.49-7.89L131.49-7.89L131.49-7.89Q131.49-7.31 131.37-6.26L131.37-6.26L131.37-6.26Q134.21-7.37 138.04-12.12L138.04-12.12L138.04-12.12Q138.74-12.93 139.61-12.93L139.61-12.93L139.61-12.93Q140.36-12.93 140.80-12.24L140.80-12.24L140.80-12.24Q141.23-11.54 141.23-10.32L141.23-10.32L141.23-10.32Q141.23-8.12 140.13-6.73L140.13-6.73L140.13-6.73Q137.23-3.13 134.59-1.83L134.59-1.83L134.59-1.83Q131.95-0.52 128.06-0.41L128.06-0.41L128.06-0.41Q125.74 1.57 122.55 1.57L122.55 1.57ZM166.11-17.81L166.11-17.81Q166.87-17.81 167.27-17.05L167.27-17.05L167.27-17.05Q167.68-16.30 167.68-15.14L167.68-15.14L167.68-15.14Q167.68-12.35 166.00-11.83L166.00-11.83L166.00-11.83Q162.52-10.61 158.34-10.44L158.34-10.44L158.34-10.44Q157.24-5.57 153.99-2.64L153.99-2.64L153.99-2.64Q150.74 0.29 146.62 0.29L146.62 0.29L146.62 0.29Q143.14 0.29 140.68-1.39L140.68-1.39L140.68-1.39Q138.21-3.07 136.94-5.86L136.94-5.86L136.94-5.86Q135.66-8.64 135.66-11.89L135.66-11.89L135.66-11.89Q135.66-16.30 137.34-19.75L137.34-19.75L137.34-19.75Q139.03-23.20 141.98-25.14L141.98-25.14L141.98-25.14Q144.94-27.09 148.54-27.09L148.54-27.09L148.54-27.09Q152.95-27.09 155.64-24.04L155.64-24.04L155.64-24.04Q158.34-21.00 158.80-16.53L158.80-16.53L158.80-16.53Q161.53-16.70 165.30-17.69L165.30-17.69L165.30-17.69Q165.76-17.81 166.11-17.81L166.11-17.81ZM147.09-5.86L147.09-5.86Q148.94-5.86 150.31-7.37L150.31-7.37L150.31-7.37Q151.67-8.87 152.13-11.72L152.13-11.72L152.13-11.72Q150.34-12.93 149.38-14.91L149.38-14.91L149.38-14.91Q148.42-16.88 148.42-19.08L148.42-19.08L148.42-19.08Q148.42-20.01 148.60-20.94L148.60-20.94L148.31-20.94L148.31-20.94Q145.99-20.94 144.45-18.71L144.45-18.71L144.45-18.71Q142.91-16.47 142.91-12.41L142.91-12.41L142.91-12.41Q142.91-9.22 144.16-7.54L144.16-7.54L144.16-7.54Q145.41-5.86 147.09-5.86L147.09-5.86ZM166.81 0.29L166.81 0.29Q164.60 0.29 163.71-2.03L163.71-2.03L163.71-2.03Q162.81-4.35 162.81-9.45L162.81-9.45L162.81-9.45Q162.81-16.99 164.95-23.78L164.95-23.78L164.95-23.78Q165.47-25.46 166.66-26.25L166.66-26.25L166.66-26.25Q167.85-27.03 170.00-27.03L170.00-27.03L170.00-27.03Q171.16-27.03 171.62-26.74L171.62-26.74L171.62-26.74Q172.09-26.45 172.09-25.64L172.09-25.64L172.09-25.64Q172.09-24.71 171.22-21.46L171.22-21.46L171.22-21.46Q170.64-19.14 170.29-17.43L170.29-17.43L170.29-17.43Q169.94-15.72 169.71-13.17L169.71-13.17L169.71-13.17Q171.27-17.69 173.45-20.82L173.45-20.82L173.45-20.82Q175.62-23.95 177.92-25.49L177.92-25.49L177.92-25.49Q180.21-27.03 182.24-27.03L182.24-27.03L182.24-27.03Q184.27-27.03 185.11-26.10L185.11-26.10L185.11-26.10Q185.95-25.17 185.95-23.26L185.95-23.26L185.95-23.26Q185.95-21.40 184.85-16.53L184.85-16.53L184.85-16.53Q184.38-14.44 184.21-13.40L184.21-13.40L184.21-13.40Q187.11-20.53 190.65-23.78L190.65-23.78L190.65-23.78Q194.18-27.03 197.26-27.03L197.26-27.03L197.26-27.03Q201.03-27.03 201.03-23.26L201.03-23.26L201.03-23.26Q201.03-21.00 199.75-15.08L199.75-15.08L199.75-15.08Q198.65-10.03 198.65-8.41L198.65-8.41L198.65-8.41Q198.65-6.09 200.33-6.09L200.33-6.09L200.33-6.09Q201.49-6.09 203.09-7.51L203.09-7.51L203.09-7.51Q204.68-8.93 207.35-12.12L207.35-12.12L207.35-12.12Q208.05-12.93 208.92-12.93L208.92-12.93L208.92-12.93Q209.67-12.93 210.11-12.24L210.11-12.24L210.11-12.24Q210.54-11.54 210.54-10.32L210.54-10.32L210.54-10.32Q210.54-8.00 209.44-6.73L209.44-6.73L209.44-6.73Q206.94-3.65 204.07-1.68L204.07-1.68L204.07-1.68Q201.20 0.29 197.55 0.29L197.55 0.29L197.55 0.29Q194.59 0.29 193.08-1.42L193.08-1.42L193.08-1.42Q191.57-3.13 191.57-6.38L191.57-6.38L191.57-6.38Q191.57-8.00 192.39-12.18L192.39-12.18L192.39-12.18Q193.14-15.83 193.14-17.23L193.14-17.23L193.14-17.23Q193.14-18.15 192.50-18.15L192.50-18.15L192.50-18.15Q191.75-18.15 190.36-16.21L190.36-16.21L190.36-16.21Q188.96-14.27 187.57-11.08L187.57-11.08L187.57-11.08Q186.18-7.89 185.31-4.35L185.31-4.35L185.31-4.35Q184.67-1.57 183.83-0.64L183.83-0.64L183.83-0.64Q182.99 0.29 181.13 0.29L181.13 0.29L181.13 0.29Q179.22 0.29 178.26-1.54L178.26-1.54L178.26-1.54Q177.31-3.36 177.31-5.97L177.31-5.97L177.31-5.97Q177.31-8.18 177.89-12.35L177.89-12.35L177.89-12.35Q178.35-16.07 178.35-17.23L178.35-17.23L178.35-17.23Q178.35-18.15 177.71-18.15L177.71-18.15L177.71-18.15Q176.84-18.15 175.51-16.07L175.51-16.07L175.51-16.07Q174.17-13.98 172.93-10.73L172.93-10.73L172.93-10.73Q171.68-7.48 170.93-4.35L170.93-4.35L170.93-4.35Q170.29-1.62 169.45-0.67L169.45-0.67L169.45-0.67Q168.61 0.29 166.81 0.29L166.81 0.29ZM231.71-12.93L231.71-12.93Q232.46-12.93 232.90-12.24L232.90-12.24L232.90-12.24Q233.33-11.54 233.33-10.32L233.33-10.32L233.33-10.32Q233.33-8.00 232.23-6.73L232.23-6.73L232.23-6.73Q230.09-4.12 226.17-1.91L226.17-1.91L226.17-1.91Q222.26 0.29 217.79 0.29L217.79 0.29L217.79 0.29Q211.70 0.29 208.34-3.02L208.34-3.02L208.34-3.02Q204.97-6.32 204.97-12.06L204.97-12.06L204.97-12.06Q204.97-16.07 206.65-19.52L206.65-19.52L206.65-19.52Q208.34-22.97 211.32-25.00L211.32-25.00L211.32-25.00Q214.31-27.03 218.08-27.03L218.08-27.03L218.08-27.03Q221.44-27.03 223.47-25.03L223.47-25.03L223.47-25.03Q225.50-23.03 225.50-19.60L225.50-19.60L225.50-19.60Q225.50-15.60 222.63-12.73L222.63-12.73L222.63-12.73Q219.76-9.86 212.92-8.18L212.92-8.18L212.92-8.18Q214.37-5.51 218.43-5.51L218.43-5.51L218.43-5.51Q221.04-5.51 224.37-7.34L224.37-7.34L224.37-7.34Q227.71-9.16 230.14-12.12L230.14-12.12L230.14-12.12Q230.84-12.93 231.71-12.93L231.71-12.93ZM217.09-21.34L217.09-21.34Q214.95-21.34 213.47-18.85L213.47-18.85L213.47-18.85Q211.99-16.36 211.99-12.82L211.99-12.82L211.99-12.70L211.99-12.70Q215.41-13.51 217.38-15.14L217.38-15.14L217.38-15.14Q219.36-16.76 219.36-18.91L219.36-18.91L219.36-18.91Q219.36-20.01 218.75-20.68L218.75-20.68L218.75-20.68Q218.14-21.34 217.09-21.34L217.09-21.34ZM292.67-48.08L292.67-48.08Q294.29-47.85 294.90-47.10L294.90-47.10L294.90-47.10Q295.51-46.34 295.51-45.12L295.51-45.12L295.51-45.12Q295.51-41.12 291.22-41.41L291.22-41.41L289.19-41.59L289.19-41.59Q285.77-41.88 282.37-42.05L282.37-42.05L282.37-42.05Q278.98-42.22 275.27-42.22L275.27-42.22L272.66-42.22L272.66-42.22Q271.96-33.64 271.21-26.56L271.21-26.56L281.18-26.74L281.18-26.74Q283.33-26.74 284.06-25.98L284.06-25.98L284.06-25.98Q284.78-25.23 284.78-23.95L284.78-23.95L284.78-23.95Q284.78-21.98 283.62-20.85L283.62-20.85L283.62-20.85Q282.46-19.72 280.31-19.72L280.31-19.72L270.40-19.72L270.05-17.23L270.05-17.23Q268.83-7.66 264.86-3.60L264.86-3.60L264.86-3.60Q260.88 0.46 253.92 0.46L253.92 0.46L253.92 0.46Q249.98 0.46 246.67-1.25L246.67-1.25L246.67-1.25Q243.37-2.96 241.80-5.39L241.80-5.39L241.80-5.39Q241.16-6.38 241.16-7.77L241.16-7.77L241.16-7.77Q241.16-9.16 241.83-10.21L241.83-10.21L241.83-10.21Q242.50-11.25 243.48-11.25L243.48-11.25L243.48-11.25Q244.18-11.25 244.85-10.79L244.85-10.79L244.85-10.79Q245.51-10.32 246.56-8.99L246.56-8.99L246.56-8.99Q249.34-5.34 253.46-5.34L253.46-5.34L253.46-5.34Q256.77-5.34 259.00-8.03L259.00-8.03L259.00-8.03Q261.23-10.73 261.87-16.53L261.87-16.53L262.22-19.72L259.43-19.72L259.43-19.72Q258.10-19.72 257.14-20.47L257.14-20.47L257.14-20.47Q256.19-21.23 256.19-22.62L256.19-22.62L256.19-22.62Q256.19-24.42 257.11-25.38L257.11-25.38L257.11-25.38Q258.04-26.33 259.84-26.33L259.84-26.33L259.84-26.33Q261.46-26.33 263.03-26.39L263.03-26.39L263.03-26.39Q263.73-32.77 264.54-41.88L264.54-41.88L264.54-41.88Q258.27-41.30 255.72-39.85L255.72-39.85L255.72-39.85Q253.17-38.40 253.17-35.55L253.17-35.55L253.17-35.55Q253.17-33.58 254.33-31.78L254.33-31.78L254.33-31.78Q254.68-31.26 254.68-30.74L254.68-30.74L254.68-30.74Q254.68-29.70 253.52-28.91L253.52-28.91L253.52-28.91Q252.36-28.13 250.91-28.13L250.91-28.13L250.91-28.13Q249.34-28.13 248.24-29.06L248.24-29.06L248.24-29.06Q247.54-29.64 246.91-31.44L246.91-31.44L246.91-31.44Q246.27-33.23 246.27-35.44L246.27-35.44L246.27-35.44Q246.27-42.63 253.66-45.88L253.66-45.88L253.66-45.88Q261.06-49.13 275.27-49.13L275.27-49.13L275.27-49.13Q285.13-49.13 292.67-48.08L292.67-48.08ZM292.90-30.86L292.90-30.86Q290.46-30.86 289.25-31.99L289.25-31.99L289.25-31.99Q288.03-33.12 288.03-35.15L288.03-35.15L288.03-35.15Q288.03-37.18 289.62-38.54L289.62-38.54L289.62-38.54Q291.22-39.90 293.60-39.90L293.60-39.90L293.60-39.90Q295.74-39.90 297.08-38.86L297.08-38.86L297.08-38.86Q298.41-37.82 298.41-35.90L298.41-35.90L298.41-35.90Q298.41-33.58 296.90-32.22L296.90-32.22L296.90-32.22Q295.39-30.86 292.90-30.86L292.90-30.86ZM292.44 0.29L292.44 0.29Q288.67 0.29 286.96-2.38L286.96-2.38L286.96-2.38Q285.24-5.05 285.24-9.45L285.24-9.45L285.24-9.45Q285.24-12.06 285.91-16.15L285.91-16.15L285.91-16.15Q286.58-20.24 287.62-23.78L287.62-23.78L287.62-23.78Q288.14-25.64 289.01-26.33L289.01-26.33L289.01-26.33Q289.88-27.03 291.80-27.03L291.80-27.03L291.80-27.03Q294.76-27.03 294.76-25.06L294.76-25.06L294.76-25.06Q294.76-23.61 293.65-18.33L293.65-18.33L293.65-18.33Q292.26-11.95 292.26-9.69L292.26-9.69L292.26-9.69Q292.26-7.95 292.73-7.02L292.73-7.02L292.73-7.02Q293.19-6.09 294.29-6.09L294.29-6.09L294.29-6.09Q295.34-6.09 296.90-7.54L296.90-7.54L296.90-7.54Q298.47-8.99 301.08-12.12L301.08-12.12L301.08-12.12Q301.77-12.93 302.64-12.93L302.64-12.93L302.64-12.93Q303.40-12.93 303.83-12.24L303.83-12.24L303.83-12.24Q304.27-11.54 304.27-10.32L304.27-10.32L304.27-10.32Q304.27-8.00 303.17-6.73L303.17-6.73L303.17-6.73Q297.42 0.29 292.44 0.29L292.44 0.29ZM321.55-12.93L321.55-12.93Q322.31-12.93 322.74-12.24L322.74-12.24L322.74-12.24Q323.18-11.54 323.18-10.32L323.18-10.32L323.18-10.32Q323.18-8.00 322.07-6.73L322.07-6.73L322.07-6.73Q319.58-3.65 316.65-1.68L316.65-1.68L316.65-1.68Q313.72 0.29 310.01 0.29L310.01 0.29L310.01 0.29Q304.91 0.29 302.44-4.35L302.44-4.35L302.44-4.35Q299.98-8.99 299.98-16.36L299.98-16.36L299.98-16.36Q299.98-23.43 301.80-32.48L301.80-32.48L301.80-32.48Q303.63-41.53 307.20-48.02L307.20-48.02L307.20-48.02Q310.76-54.52 315.69-54.52L315.69-54.52L315.69-54.52Q318.48-54.52 320.07-51.94L320.07-51.94L320.07-51.94Q321.67-49.36 321.67-44.54L321.67-44.54L321.67-44.54Q321.67-37.64 317.84-28.54L317.84-28.54L317.84-28.54Q314.01-19.43 307.46-10.50L307.46-10.50L307.46-10.50Q307.86-8.12 308.79-7.11L308.79-7.11L308.79-7.11Q309.72-6.09 311.23-6.09L311.23-6.09L311.23-6.09Q313.61-6.09 315.40-7.45L315.40-7.45L315.40-7.45Q317.20-8.82 319.99-12.12L319.99-12.12L319.99-12.12Q320.68-12.93 321.55-12.93L321.55-12.93ZM314.42-48.78L314.42-48.78Q313.08-48.78 311.40-43.96L311.40-43.96L311.40-43.96Q309.72-39.15 308.44-32.02L308.44-32.02L308.44-32.02Q307.17-24.88 307.05-18.33L307.05-18.33L307.05-18.33Q311.17-25.11 313.61-31.93L313.61-31.93L313.61-31.93Q316.04-38.74 316.04-44.37L316.04-44.37L316.04-44.37Q316.04-48.78 314.42-48.78L314.42-48.78ZM344.35-12.93L344.35-12.93Q345.10-12.93 345.54-12.24L345.54-12.24L345.54-12.24Q345.97-11.54 345.97-10.32L345.97-10.32L345.97-10.32Q345.97-8.00 344.87-6.73L344.87-6.73L344.87-6.73Q342.37-3.65 339.42-1.68L339.42-1.68L339.42-1.68Q336.46 0.29 332.63 0.29L332.63 0.29L332.63 0.29Q320.80 0.29 320.80-16.36L320.80-16.36L320.80-16.36Q320.80-18.91 320.97-21.52L320.97-21.52L318.71-21.52L318.71-21.52Q316.97-21.52 316.36-22.16L316.36-22.16L316.36-22.16Q315.75-22.79 315.75-24.19L315.75-24.19L315.75-24.19Q315.75-27.43 318.36-27.43L318.36-27.43L321.67-27.43L321.67-27.43Q322.65-33.81 324.68-39.09L324.68-39.09L324.68-39.09Q326.71-44.37 329.59-47.50L329.59-47.50L329.59-47.50Q332.46-50.63 335.76-50.63L335.76-50.63L335.76-50.63Q338.20-50.63 339.59-48.49L339.59-48.49L339.59-48.49Q340.98-46.34 340.98-43.09L340.98-43.09L340.98-43.09Q340.98-34.10 333.44-27.43L333.44-27.43L339.94-27.43L339.94-27.43Q340.87-27.43 341.27-27.03L341.27-27.03L341.27-27.03Q341.68-26.62 341.68-25.52L341.68-25.52L341.68-25.52Q341.68-21.52 335.12-21.52L335.12-21.52L328.05-21.52L328.05-21.52Q327.93-18.62 327.93-16.99L327.93-16.99L327.93-16.99Q327.93-10.96 329.35-8.53L329.35-8.53L329.35-8.53Q330.77-6.09 333.85-6.09L333.85-6.09L333.85-6.09Q336.34-6.09 338.26-7.60L338.26-7.60L338.26-7.60Q340.17-9.11 342.78-12.12L342.78-12.12L342.78-12.12Q343.48-12.93 344.35-12.93L344.35-12.93ZM334.20-45.07L334.20-45.07Q333.33-45.07 332.25-42.89L332.25-42.89L332.25-42.89Q331.18-40.72 330.22-36.86L330.22-36.86L330.22-36.86Q329.27-33.00 328.63-28.30L328.63-28.30L328.63-28.30Q332.05-31.26 333.76-34.95L333.76-34.95L333.76-34.95Q335.47-38.63 335.47-41.64L335.47-41.64L335.47-41.64Q335.47-45.07 334.20-45.07L334.20-45.07ZM367.14-12.93L367.14-12.93Q367.89-12.93 368.33-12.24L368.33-12.24L368.33-12.24Q368.76-11.54 368.76-10.32L368.76-10.32L368.76-10.32Q368.76-8.00 367.66-6.73L367.66-6.73L367.66-6.73Q365.52-4.12 361.60-1.91L361.60-1.91L361.60-1.91Q357.69 0.29 353.22 0.29L353.22 0.29L353.22 0.29Q347.13 0.29 343.77-3.02L343.77-3.02L343.77-3.02Q340.40-6.32 340.40-12.06L340.40-12.06L340.40-12.06Q340.40-16.07 342.08-19.52L342.08-19.52L342.08-19.52Q343.77-22.97 346.75-25.00L346.75-25.00L346.75-25.00Q349.74-27.03 353.51-27.03L353.51-27.03L353.51-27.03Q356.87-27.03 358.90-25.03L358.90-25.03L358.90-25.03Q360.93-23.03 360.93-19.60L360.93-19.60L360.93-19.60Q360.93-15.60 358.06-12.73L358.06-12.73L358.06-12.73Q355.19-9.86 348.35-8.18L348.35-8.18L348.35-8.18Q349.80-5.51 353.86-5.51L353.86-5.51L353.86-5.51Q356.47-5.51 359.80-7.34L359.80-7.34L359.80-7.34Q363.14-9.16 365.57-12.12L365.57-12.12L365.57-12.12Q366.27-12.93 367.14-12.93L367.14-12.93ZM352.52-21.34L352.52-21.34Q350.38-21.34 348.90-18.85L348.90-18.85L348.90-18.85Q347.42-16.36 347.42-12.82L347.42-12.82L347.42-12.70L347.42-12.70Q350.84-13.51 352.81-15.14L352.81-15.14L352.81-15.14Q354.79-16.76 354.79-18.91L354.79-18.91L354.79-18.91Q354.79-20.01 354.18-20.68L354.18-20.68L354.18-20.68Q353.57-21.34 352.52-21.34L352.52-21.34ZM368.18 0.29L368.18 0.29Q365.98 0.29 365.08-2.03L365.08-2.03L365.08-2.03Q364.18-4.35 364.18-9.45L364.18-9.45L364.18-9.45Q364.18-16.99 366.33-23.78L366.33-23.78L366.33-23.78Q366.85-25.46 368.04-26.25L368.04-26.25L368.04-26.25Q369.23-27.03 371.37-27.03L371.37-27.03L371.37-27.03Q372.53-27.03 373.00-26.74L373.00-26.74L373.00-26.74Q373.46-26.45 373.46-25.64L373.46-25.64L373.46-25.64Q373.46-24.71 372.59-21.46L372.59-21.46L372.59-21.46Q372.01-19.14 371.66-17.40L371.66-17.40L371.66-17.40Q371.32-15.66 371.08-13.11L371.08-13.11L371.08-13.11Q373.00-18.10 375.38-21.23L375.38-21.23L375.38-21.23Q377.75-24.36 380.05-25.69L380.05-25.69L380.05-25.69Q382.34-27.03 384.25-27.03L384.25-27.03L384.25-27.03Q388.02-27.03 388.02-23.26L388.02-23.26L388.02-23.26Q388.02-22.50 387.50-19.60L387.50-19.60L387.50-19.60Q387.03-17.28 387.03-16.70L387.03-16.70L387.03-16.70Q387.03-14.67 388.48-14.67L388.48-14.67L388.48-14.67Q390.11-14.67 392.66-17.23L392.66-17.23L392.66-17.23Q393.41-17.98 394.23-17.98L394.23-17.98L394.23-17.98Q394.98-17.98 395.42-17.31L395.42-17.31L395.42-17.31Q395.85-16.65 395.85-15.54L395.85-15.54L395.85-15.54Q395.85-13.40 394.69-12.18L394.69-12.18L394.69-12.18Q393.07-10.50 390.89-9.31L390.89-9.31L390.89-9.31Q388.72-8.12 386.28-8.12L386.28-8.12L386.28-8.12Q383.21-8.12 381.61-9.69L381.61-9.69L381.61-9.69Q380.02-11.25 380.02-13.92L380.02-13.92L380.02-13.92Q380.02-14.79 380.19-15.66L380.19-15.66L380.19-15.66Q380.31-16.82 380.31-17.23L380.31-17.23L380.31-17.23Q380.31-18.15 379.67-18.15L379.67-18.15L379.67-18.15Q378.80-18.15 377.38-16.21L377.38-16.21L377.38-16.21Q375.96-14.27 374.56-11.08L374.56-11.08L374.56-11.08Q373.17-7.89 372.30-4.35L372.30-4.35L372.30-4.35Q371.66-1.62 370.82-0.67L370.82-0.67L370.82-0.67Q369.98 0.29 368.18 0.29L368.18 0.29ZM401.24 1.57L401.24 1.57Q398.23 1.57 396.63 0.17L396.63 0.17L396.63 0.17Q395.04-1.22 395.04-2.96L395.04-2.96L395.04-2.96Q395.04-4.47 396.14-5.57L396.14-5.57L396.14-5.57Q397.24-6.67 399.39-6.67L399.39-6.67L399.39-6.67Q400.14-6.67 401.16-6.53L401.16-6.53L401.16-6.53Q402.17-6.38 402.69-6.32L402.69-6.32L402.69-6.32Q402.64-7.83 402.03-9.16L402.03-9.16L402.03-9.16Q401.42-10.50 400.49-11.75L400.49-11.75L400.49-11.75Q399.56-12.99 398.75-13.92L398.75-13.92L398.75-13.92Q396.95-10.50 395.18-8.24L395.18-8.24L395.18-8.24Q393.41-5.97 391.33-3.94L391.33-3.94L391.33-3.94Q390.28-2.90 389.12-2.90L389.12-2.90L389.12-2.90Q388.19-2.90 387.61-3.57L387.61-3.57L387.61-3.57Q387.03-4.23 387.03-5.22L387.03-5.22L387.03-5.22Q387.03-6.38 387.85-7.37L387.85-7.37L388.60-8.29L388.60-8.29Q391.79-12.24 393.41-14.79L393.41-14.79L393.41-14.79Q394.40-16.47 395.73-19.29L395.73-19.29L395.73-19.29Q397.07-22.10 398.34-25.11L398.34-25.11L398.34-25.11Q399.45-27.67 402.93-27.67L402.93-27.67L402.93-27.67Q404.55-27.67 405.19-27.38L405.19-27.38L405.19-27.38Q405.83-27.09 405.83-26.45L405.83-26.45L405.83-26.45Q405.83-26.10 405.59-25.35L405.59-25.35L405.59-25.35Q405.36-24.59 404.96-23.84L404.96-23.84L404.96-23.84Q403.91-21.75 403.91-20.30L403.91-20.30L403.91-20.30Q403.91-19.43 404.52-18.39L404.52-18.39L404.52-18.39Q405.13-17.34 406.41-15.78L406.41-15.78L406.41-15.78Q408.26-13.34 409.22-11.63L409.22-11.63L409.22-11.63Q410.18-9.92 410.18-7.89L410.18-7.89L410.18-7.89Q410.18-7.31 410.06-6.26L410.06-6.26L410.06-6.26Q412.90-7.37 416.73-12.12L416.73-12.12L416.73-12.12Q417.43-12.93 418.30-12.93L418.30-12.93L418.30-12.93Q419.05-12.93 419.49-12.24L419.49-12.24L419.49-12.24Q419.92-11.54 419.92-10.32L419.92-10.32L419.92-10.32Q419.92-8.12 418.82-6.73L418.82-6.73L418.82-6.73Q415.92-3.13 413.28-1.83L413.28-1.83L413.28-1.83Q410.64-0.52 406.75-0.41L406.75-0.41L406.75-0.41Q404.43 1.57 401.24 1.57L401.24 1.57Z" fill="url(#editing-gradient-gradient)"></path></g></g><style>text {
  font-size: 64px;
  font-family: Arial Black;
  dominant-baseline: central;
  text-anchor: middle;
}</style></svg>